<svg width="32" height="32" viewBox="0 0 32 32" fill="none" xmlns="http://www.w3.org/2000/svg">
<path fill-rule="evenodd" clip-rule="evenodd" d="M16 32C24.8366 32 32 24.8366 32 16C32 7.16344 24.8366 0 16 0C7.16344 0 0 7.16344 0 16C0 24.8366 7.16344 32 16 32ZM31 16C31 24.2843 24.2843 31 16 31C7.71573 31 1 24.2843 1 16C1 7.71573 7.71573 1 16 1C24.2843 1 31 7.71573 31 16ZM16.3275 8.62219L23.8275 15.1222L24.2053 15.4497L23.8778 15.8275L17.3778 23.3275L16.6222 22.6726L22.405 16H9V15H22.1596L15.6725 9.37788L16.3275 8.62219Z" fill="white"/>
</svg>
