<svg width="197" height="49" viewBox="0 0 197 49" fill="none" xmlns="http://www.w3.org/2000/svg">
<path d="M43.0275 0H6.13272C2.72201 0 0 2.72201 0 6.06713V42.5683C0 45.9135 2.75481 48.6355 6.13272 48.6355H42.9947C46.4054 48.6355 49.1274 45.9135 49.1274 42.5683V6.09993C49.1602 2.72201 46.4054 0 43.0275 0ZM31.1228 8.92033C31.1228 8.03485 31.8443 7.31336 32.7625 7.31336C33.6808 7.31336 34.4023 8.03485 34.4023 8.92033V30.598C34.4023 31.4835 33.6808 32.205 32.7625 32.205C31.8443 32.205 31.1228 31.4835 31.1228 30.598V8.92033ZM22.9567 8.10044C22.9567 7.21497 23.6782 6.49348 24.5965 6.49348C25.5148 6.49348 26.2363 7.21497 26.2363 8.10044V31.6147C26.2363 32.5002 25.5148 33.2217 24.5965 33.2217C23.6782 33.2217 22.9567 32.5002 22.9567 31.6147V8.10044ZM14.7579 8.92033C14.7579 8.03485 15.4794 7.31336 16.3977 7.31336C17.3159 7.31336 18.0374 8.03485 18.0374 8.92033V30.598C18.0374 31.4835 17.3159 32.205 16.3977 32.205C15.4794 32.205 14.7579 31.4835 14.7579 30.598V8.92033ZM6.55906 12.1671C6.55906 11.2816 7.28056 10.5601 8.19883 10.5601C9.1171 10.5601 9.8386 11.2816 9.8386 12.1671V26.761C9.8386 27.6465 9.1171 28.368 8.19883 28.368C7.28056 28.368 6.55906 27.6465 6.55906 26.761V12.1671ZM42.0436 36.8947C41.7812 37.1243 35.7141 42.142 24.5965 42.142C13.4789 42.142 7.41174 37.0915 7.14938 36.8947C6.46068 36.3044 6.39509 35.2878 6.9854 34.5991C7.57572 33.9104 8.59237 33.8448 9.28108 34.4351C9.37946 34.5007 14.7907 38.9281 24.5965 38.9281C34.5335 38.9281 39.8791 34.5007 39.9119 34.4679C40.6006 33.8776 41.6173 33.976 42.2076 34.6319C42.7979 35.2878 42.7323 36.3372 42.0436 36.8947ZM42.6011 26.761C42.6011 27.6465 41.8796 28.368 40.9614 28.368C40.0431 28.368 39.3216 27.6465 39.3216 26.761V12.1671C39.3216 11.2816 40.0431 10.5601 40.9614 10.5601C41.8796 10.5601 42.6011 11.2816 42.6011 12.1671V26.761Z" fill="#286EFA"/>
<path d="M68.2134 31.3537C68.2134 32.1735 67.5903 32.8294 66.7048 32.8294C65.8521 32.8294 65.229 32.1735 65.229 31.3537V17.2517C65.229 16.4318 65.8521 15.7759 66.7376 15.7759C67.5903 15.7759 68.2134 16.4318 68.2134 17.2517V31.3537Z" fill="black"/>
<path d="M87.4973 17.2498V30.1384C87.4973 31.8765 86.579 32.8604 85.0704 32.8604H84.9392C83.529 32.8604 82.8731 32.0405 82.25 30.8599L79.2328 25.0223L76.5764 18.988L76.642 24.8255L76.6748 31.3518C76.6748 32.1717 76.0517 32.8276 75.1662 32.8276C74.3135 32.8276 73.6904 32.1717 73.6904 31.3518V18.4632C73.6904 16.8563 74.6087 15.7412 76.2485 15.7412H76.3796C77.8882 15.7412 78.5113 16.5611 79.1017 17.7417L82.0532 23.5465L84.5785 29.1873L84.5129 23.7761L84.4801 17.2498C84.4801 16.4299 85.1032 15.774 85.9887 15.774C86.8742 15.774 87.4973 16.4627 87.4973 17.2498Z" fill="black"/>
<path d="M99.4344 31.3526C99.4344 32.1725 98.8112 32.8284 97.9258 32.8284C97.0731 32.8284 96.45 32.1725 96.45 31.3526V18.5952H92.7441C91.9898 18.5952 91.3667 18.0377 91.3667 17.185C91.3667 16.3651 91.9898 15.8076 92.7441 15.8076H103.14C103.895 15.8076 104.518 16.3651 104.518 17.2178C104.518 18.0377 103.895 18.5952 103.14 18.5952H99.4344V31.3526Z" fill="black"/>
<path d="M108.421 30.8613V17.612C108.421 16.3658 109.11 15.6771 110.389 15.7099H118.981C119.736 15.7099 120.359 16.3002 120.359 17.1201C120.359 17.9399 119.736 18.4975 118.981 18.4975H111.373V22.5969H118.063C118.817 22.5969 119.408 23.1544 119.408 23.9415C119.408 24.7286 118.817 25.2861 118.063 25.2861H111.373V30.0086H118.948C119.703 30.0086 120.326 30.5989 120.326 31.4188C120.326 32.2387 119.703 32.7962 118.948 32.7962H110.29C109.077 32.829 108.356 32.1403 108.421 30.8613Z" fill="black"/>
<path d="M137.313 30.8938C137.707 31.5825 137.444 32.468 136.624 32.8943C135.805 33.2878 134.919 32.9927 134.526 32.304L131.213 26.1713H128.065L128.098 31.3857C128.098 32.2056 127.475 32.8615 126.589 32.8615C125.736 32.8615 125.113 32.2056 125.113 31.3857V17.6445C125.113 16.3982 125.802 15.7095 127.081 15.7423H132.689C136.592 15.7423 138.199 18.2676 138.199 20.8584C138.199 23.3181 136.756 25.1218 134.296 25.6137L137.313 30.8938ZM128.032 23.482H132.755C134.362 23.482 135.181 22.4654 135.181 20.9896C135.181 19.5466 134.296 18.5299 132.722 18.5299H128.032V23.482Z" fill="black"/>
<path d="M144.363 31.5485C142.56 29.9415 141.772 27.4491 141.772 24.3007C141.772 21.1196 142.56 18.6599 144.33 17.0857C145.413 16.1347 146.921 15.4788 149.053 15.4788C150.955 15.4788 152.398 15.9051 153.48 16.8234C154.431 17.5777 155.12 18.6599 155.546 20.1685C155.776 20.9556 155.219 21.7427 154.3 21.9066C153.448 22.0378 152.759 21.5131 152.497 20.726C152.201 19.9717 151.841 19.4142 151.381 19.0207C150.758 18.4631 150.004 18.2336 148.987 18.2336C147.905 18.2336 146.987 18.5287 146.298 19.2502C145.282 20.2669 144.855 22.0378 144.855 24.3007C144.855 26.5308 145.249 28.3345 146.298 29.3512C146.987 30.0399 147.905 30.3678 148.955 30.3678C150.037 30.3678 150.89 30.0727 151.578 29.4496C151.939 29.1216 152.234 28.6953 152.464 28.1706C152.759 27.4163 153.415 26.8915 154.267 27.0883C155.087 27.2851 155.612 28.105 155.35 28.892C154.923 30.2039 154.169 31.2533 153.185 31.9748C152.103 32.7619 150.726 33.1554 149.02 33.1554C146.79 33.1226 145.413 32.4667 144.363 31.5485Z" fill="black"/>
<path d="M158.894 24.3007C158.894 18.9551 161.091 15.4788 166.273 15.4788C171.389 15.4788 173.619 18.8567 173.619 24.3007C173.619 29.8103 171.389 33.1226 166.273 33.1226C161.059 33.1226 158.894 29.8103 158.894 24.3007ZM170.569 24.3007C170.569 20.2341 169.093 18.2664 166.24 18.2664C163.453 18.2664 161.977 20.2341 161.977 24.3007C161.977 28.3673 163.42 30.335 166.24 30.335C169.061 30.335 170.569 28.3673 170.569 24.3007Z" fill="black"/>
<path d="M196.772 31.3523C196.772 32.1722 196.149 32.8281 195.264 32.8281C194.411 32.8281 193.788 32.1722 193.788 31.3523V24.9572L193.854 18.7261L191.787 25.0556L189.688 31.2867C189.328 32.3689 188.606 32.8281 187.655 32.8281C186.671 32.8281 185.95 32.3689 185.589 31.2867L183.425 25.0884L181.457 18.8573L181.522 24.99V31.3851C181.522 32.205 180.899 32.8609 180.014 32.8609C179.161 32.8609 178.538 32.205 178.538 31.3851V18.6277C178.538 16.8567 179.489 15.8401 181.162 15.8401C182.736 15.8401 183.621 16.66 184.113 18.2013L186.311 24.7276L187.655 29.155L189 24.7276L191.197 18.2013C191.689 16.66 192.542 15.8401 194.149 15.8401C195.821 15.8401 196.739 16.8567 196.739 18.6277L196.772 31.3523Z" fill="black"/>
</svg>
