<svg width="150" height="33" viewBox="0 0 150 33" fill="none" xmlns="http://www.w3.org/2000/svg">
  <path fill-rule="evenodd" clip-rule="evenodd" d="M70.5916 16.527C70.5916 11.9552 73.3096 9 77.4206 9C77.7024 9 78.1534 9.01111 78.7726 9.03335L79.6754 9.06865L79.7848 9.07405C83.3893 9.279 86.2147 12.1469 86.2147 15.6258V23.6494H82.1015V21.5947L81.6176 22.1546L81.5639 22.2156C80.5849 23.3063 78.9732 24 77.6171 24C73.3249 24 70.5916 21.0922 70.5916 16.527ZM81.0989 14.3976C80.5374 13.4004 79.3022 12.8344 78.0109 12.8344C76.0177 12.8344 74.5859 14.1012 74.5859 16.5C74.5859 18.791 75.9054 20.1926 78.1231 20.1926C79.3584 20.1926 80.4813 19.7074 81.0989 18.5484C81.3801 17.8943 81.5208 17.1479 81.5208 16.3092C81.5208 15.4706 81.3801 14.8334 81.0989 14.3976ZM105.288 16.527C105.288 11.9552 108.006 9 112.117 9C112.399 9 112.85 9.01111 113.469 9.03335L114.372 9.06865L114.481 9.07405C118.086 9.279 120.911 12.1469 120.911 15.6258V23.6494H116.798V21.5947L116.314 22.1546L116.26 22.2156C115.281 23.3063 113.67 24 112.314 24C108.021 24 105.288 21.0922 105.288 16.527ZM115.795 14.3976C115.234 13.4004 113.999 12.8344 112.707 12.8344C110.714 12.8344 109.283 14.1012 109.283 16.5C109.283 18.791 110.602 20.1926 112.82 20.1926C114.055 20.1926 115.178 19.7074 115.795 18.5484C116.178 17.8878 116.369 17.1454 116.369 16.321C116.369 15.5715 116.178 14.9304 115.795 14.3976ZM141.206 9C137.095 9 134.377 11.9552 134.377 16.527C134.377 21.0922 137.11 24 141.402 24C142.758 24 144.37 23.3063 145.349 22.2156L145.403 22.1546L145.887 21.5947V23.6494H150V15.6258C150 12.1469 147.175 9.279 143.57 9.07405L143.461 9.06865L142.558 9.03335C141.939 9.01111 141.488 9 141.206 9ZM141.796 12.8344C143.087 12.8344 144.323 13.4004 144.884 14.3976C145.239 14.9449 145.416 15.6457 145.416 16.5C145.416 17.3543 145.239 18.0372 144.884 18.5484C144.267 19.7074 143.144 20.1926 141.908 20.1926C139.691 20.1926 138.371 18.791 138.371 16.5C138.371 14.1012 139.803 12.8344 141.796 12.8344ZM132.66 9.02695L132.719 9.02744C132.818 9.02907 132.913 9.0348 133.018 9.04499L133.06 9.04936V13.4895L132.927 13.4677C132.44 13.3895 132.069 13.3535 131.706 13.3535L131.635 13.3539C129.318 13.3792 127.923 14.6607 127.923 17.1199V23.6494H123.641V14.9746L123.642 14.8805C123.693 11.7804 126.255 9.24663 129.493 9.1165C130.783 9.06465 131.749 9.03532 132.391 9.0285L132.66 9.02695ZM88.8079 14.8976C89.4422 11.359 91.8124 9.61172 96.0008 9.61172C98.8629 9.61172 100.807 10.3981 101.984 11.7545L102.048 11.8296C102.844 12.7855 103.209 13.9552 103.209 14.9637V23.6494H98.8988L98.8991 16.7697L98.8984 16.6763C98.8895 15.8128 98.794 15.1977 98.496 14.6282C98.0566 13.7885 97.2407 13.3176 96.0008 13.3176C94.6829 13.3176 93.8303 13.9046 93.3957 14.9006L93.3594 14.9869C93.1018 15.6228 93.0367 16.3156 93.0748 17.0249L93.0744 23.6494H88.7927V14.9843L88.8079 14.8976ZM49.4453 16.9798V23.7089H45.0318L45 15.1312C45 15.1312 45.4217 9.59284 52.1684 9.59284C55.612 9.59284 56.5145 10.3875 57.4822 11.8919C58.6207 10.4695 60.3494 9.59284 62.5695 9.59284C68.5431 9.59284 68.8567 13.9255 68.8567 15.1197V23.7089H64.3312V16.0498C64.3312 14.4906 63.2781 13.5058 61.9403 13.5058C60.261 13.5058 59.151 14.6821 59.151 16.9798V23.7089H54.597V16.0498C54.597 14.4906 53.5439 13.5058 52.1777 13.5058C50.5268 13.5058 49.4453 14.6821 49.4453 16.9798Z" fill="black"/>
  <path fill-rule="evenodd" clip-rule="evenodd" d="M15.8656 13.5267H13.8339L13.8326 15.4355H5.92179L0 9.6376V7.77873L7.84027 7.75798L7.94185 0H9.872L11.9037 1.98923L13.8339 3.87899L15.764 5.76876L15.8656 13.5267ZM19.7003 13.5267H17.6685L17.7701 5.76876L19.7003 3.87899L21.6304 1.98923L23.6622 0H25.5923L25.6939 7.75798L33.5342 7.77873V9.6376L27.6124 15.4355H19.7016L19.7003 13.5267ZM15.6853 15.4355H17.6685V17.3871H15.6853V15.4355ZM13.9226 32.9537H19.785V31.2931L16.7728 28.7024L13.9226 31.2931V32.9537ZM17.6685 19.2958H19.7003L19.7016 17.3871H27.6124L33.5342 23.185V25.0438L25.6939 25.0646L25.5923 32.8226H23.6622L21.6304 30.8334L19.7003 28.9436L17.7701 27.0538L17.6685 19.2958ZM13.8339 19.4733H15.8656L15.764 27.2312L13.8339 29.121L11.9037 31.0108L9.872 33H7.94185L7.84027 25.242L0 25.2213V23.3624L5.92179 17.5645H13.8326L13.8339 19.4733ZM27.7648 33V27.1452H33.7144L27.7648 33ZM5.94961 27.1452V33L0 27.1452H5.94961ZM27.7648 0V5.85484H33.7144L27.7648 0ZM5.94961 6.03226V0.177419L0 6.03226H5.94961ZM33.5342 19.3387V13.4839H31.8779L29.3875 16.4022L31.8779 19.3387H33.5342ZM13.833 0.0486784H19.6953V1.62599L16.6832 3.94614L13.833 1.62599V0.0486784ZM0 19.3387V13.4839H1.57928L4.1467 16.4022L1.57928 19.3387H0Z" fill="#FF773B"/>
</svg>
