<svg width="35" height="31" viewBox="0 0 35 31" fill="none" xmlns="http://www.w3.org/2000/svg">
<path d="M14.3265 22.8851C14.3265 27.2264 11.2006 30.2562 7.21685 30.2562C3.01046 30.2562 0 27.1102 0 22.8851C0 20.8266 0.428917 19.1996 1.93827 15.1821L6.22737 2.32352C6.69023 0.935881 7.98897 0 9.45177 0C11.6585 0 13.2802 2.06998 12.752 4.21254L11.4662 9.42896C10.5258 13.244 13.3718 17.2876 14.1568 21.1376C14.2686 21.6857 14.3265 22.2691 14.3265 22.8851ZM34.6904 22.8851C34.6904 27.2264 31.5644 30.2562 27.5807 30.2562C23.3826 30.2562 20.3639 27.1102 20.3639 22.8851C20.3639 20.8266 20.7928 19.1996 22.3021 15.1821L26.5913 2.32351C27.0541 0.935874 28.3529 0 29.8157 0C32.0224 0 33.6441 2.06998 33.1159 4.21255L31.8301 9.42896C30.8897 13.244 33.7356 17.2876 34.5207 21.1376C34.6325 21.6857 34.6904 22.2691 34.6904 22.8851Z" fill="#FF773B"/>
</svg>
