<svg width="170" height="25" viewBox="0 0 170 25" fill="none" xmlns="http://www.w3.org/2000/svg">
<g clip-path="url(#clip0_132_489)">
<path d="M10.7088 1.63043L16.7657 7.67511L22.8258 1.63043" stroke="#F07F65" stroke-width="7.99196" stroke-miterlimit="10" stroke-linejoin="round"/>
<path d="M22.8258 23.3695L16.7657 17.3281L10.7088 23.3695" stroke="#F07F65" stroke-width="7.99196" stroke-miterlimit="10" stroke-linejoin="round"/>
<path d="M8.23966 6.45062L2.17949 12.5052L8.23966 18.5367" stroke="#F07F65" stroke-width="7.99196" stroke-miterlimit="10" stroke-linejoin="round"/>
<path d="M25.2884 18.5357L31.3485 12.5043L25.3182 6.47955" stroke="#F07F65" stroke-width="7.99196" stroke-miterlimit="10" stroke-linejoin="round"/>
<path d="M51.4541 17.5457C51.4541 18.0754 51.474 18.5223 51.5171 18.8798C51.5603 19.2373 51.6333 19.6312 51.7328 20.0616H48.4572C48.2713 19.5021 48.1784 18.6779 48.1784 17.5887V16.8373C48.1784 16.0627 47.966 15.4867 47.5412 15.106C47.1164 14.7253 46.5323 14.5366 45.7855 14.5366H42.8318V20.0649H39.5328V5.76422H47.0998C48.6364 5.76422 49.8112 6.11509 50.6244 6.81688C51.4375 7.51868 51.8424 8.4721 51.8424 9.67705C51.8424 10.6536 51.5636 11.4712 51.0027 12.1399C50.4418 12.8053 49.7217 13.2323 48.8455 13.421C49.6785 13.623 50.3223 13.9573 50.7737 14.4307C51.2251 14.9041 51.4541 15.6224 51.4541 16.5824V17.5457ZM46.3663 12.1896C47.0865 12.1896 47.6076 12.0207 47.9295 11.6831C48.2514 11.3455 48.414 10.8323 48.414 10.1471C48.414 8.91563 47.7304 8.29661 46.3663 8.29661H42.8318V12.1896H46.3663Z" fill="black"/>
<path d="M60.7897 17.8367C61.1913 17.5851 61.4735 17.2442 61.6294 16.8138H64.6894C64.5172 17.8334 63.9892 18.6841 63.1065 19.3727C62.2238 20.0613 60.896 20.4056 59.1273 20.4056C57.1592 20.4056 55.699 19.8659 54.7498 18.7835C53.8005 17.701 53.3259 16.3272 53.3259 14.6654C53.3259 13.5896 53.5383 12.6229 53.9631 11.7622C54.3879 10.9016 55.0353 10.2196 55.9044 9.71979C56.774 9.21658 57.8496 8.96832 59.1273 8.96832C61.0387 8.96832 62.4461 9.498 63.3522 10.5606C64.2578 11.6232 64.7095 12.9838 64.7095 14.6456C64.7095 15.0627 64.6959 15.3473 64.6665 15.5063H56.452C56.5386 16.4828 56.8138 17.1779 57.2818 17.5917C57.7499 18.0089 58.3836 18.2141 59.19 18.2141C59.8542 18.2108 60.3849 18.0883 60.7897 17.8367ZM57.3281 11.6762C56.8901 12.0502 56.6051 12.6792 56.4754 13.5697H61.673C61.6163 12.752 61.3809 12.1396 60.9722 11.7325C60.5641 11.3253 59.9637 11.1201 59.1736 11.1201C58.3803 11.1167 57.7662 11.3021 57.3281 11.6762Z" fill="black"/>
<path d="M69.6711 20.0611H66.4814V5.00897H69.6711V20.0611Z" fill="black"/>
<path d="M80.3441 9.30823H83.5338V20.0602H80.3441V18.4481C79.5807 19.7524 78.3231 20.4045 76.5708 20.4045C74.9046 20.4045 73.6765 19.8715 72.8935 18.8023C72.11 17.7331 71.7188 16.3626 71.7188 14.6842C71.7188 12.9794 72.11 11.599 72.8935 10.543C73.6765 9.49029 74.9013 8.96399 76.5708 8.96399C78.3395 8.96399 79.5976 9.60948 80.3441 10.9005V9.30823ZM79.6641 17.157C80.1152 16.6539 80.3441 15.8296 80.3441 14.6842C80.3441 13.5388 80.1218 12.7146 79.6771 12.2114C79.2325 11.7082 78.5253 11.46 77.563 11.46C76.6008 11.46 75.9137 11.7082 75.5056 12.2015C75.097 12.6947 74.8915 13.5256 74.8915 14.6842C74.8915 15.8329 75.097 16.6572 75.5056 17.157C75.9137 17.6602 76.6008 17.9085 77.563 17.9085C78.5122 17.9118 79.2124 17.6602 79.6641 17.157Z" fill="black"/>
<path d="M90.9745 20.0615C89.4941 20.0615 88.4621 19.7503 87.8813 19.1247C87.3005 18.5023 87.0084 17.5225 87.0084 16.1884V11.7195H85.0469V10.1934L87.2672 9.28969L88.5815 6.75061H90.1981V9.30952H93.3011V11.7195H90.1981V17.5258H93.002V20.0648H90.9745V20.0615Z" fill="black"/>
<path d="M98.5417 7.88841H95.0703V5.75983H98.5417V7.88841ZM98.412 20.0605H95.2229V9.30852H98.412V20.0605Z" fill="black"/>
<path d="M102.872 19.6216C101.98 19.0986 101.326 18.4067 100.911 17.546C100.493 16.6854 100.287 15.7254 100.287 14.6628C100.287 13.6167 100.496 12.6633 100.911 11.8026C101.329 10.942 101.983 10.2534 102.872 9.73696C103.762 9.22055 104.89 8.96234 106.258 8.96234C107.621 8.96234 108.753 9.22386 109.653 9.74691C110.552 10.2699 111.206 10.9618 111.614 11.8225C112.022 12.6832 112.228 13.63 112.228 14.6628C112.228 15.7088 112.022 16.6655 111.614 17.5328C111.206 18.4001 110.549 19.0953 109.653 19.6183C108.753 20.1414 107.621 20.4029 106.258 20.4029C104.893 20.4062 103.765 20.1447 102.872 19.6216ZM104.147 17.1819C104.578 17.6685 105.282 17.9135 106.261 17.9135C107.253 17.9135 107.964 17.6685 108.395 17.1819C108.826 16.6953 109.042 15.8644 109.042 14.6859C109.042 13.5108 108.826 12.6798 108.395 12.19C107.964 11.7033 107.253 11.4583 106.261 11.4583C105.282 11.4583 104.578 11.7033 104.147 12.19C103.715 12.6765 103.499 13.5108 103.499 14.6859C103.499 15.8611 103.715 16.692 104.147 17.1819Z" fill="black"/>
<path d="M125.168 13.4594V20.0602H121.979V13.9526C121.979 13.1085 121.807 12.4928 121.461 12.1154C121.116 11.7347 120.605 11.546 119.931 11.546C119.055 11.546 118.395 11.8406 117.947 12.4266C117.502 13.0158 117.279 13.9328 117.279 15.1808V20.0635H114.09V9.30823H117.279V11.4169C118.056 9.7816 119.35 8.96399 121.159 8.96399C123.831 8.96399 125.168 10.4636 125.168 13.4594Z" fill="black"/>
<path d="M135.603 9.30823H138.792V20.0602H135.603V18.4481C134.839 19.7524 133.581 20.4045 131.829 20.4045C130.163 20.4045 128.935 19.8715 128.152 18.8023C127.369 17.7331 126.977 16.3626 126.977 14.6842C126.977 12.9794 127.369 11.599 128.152 10.543C128.935 9.49029 130.16 8.96399 131.829 8.96399C133.598 8.96399 134.856 9.60948 135.603 10.9005V9.30823ZM134.922 17.157C135.374 16.6539 135.603 15.8296 135.603 14.6842C135.603 13.5388 135.38 12.7146 134.936 12.2114C134.491 11.7082 133.784 11.46 132.822 11.46C131.859 11.46 131.172 11.7082 130.764 12.2015C130.356 12.6947 130.15 13.5256 130.15 14.6842C130.15 15.8329 130.356 16.6572 130.764 17.157C131.172 17.6602 131.859 17.9085 132.822 17.9085C133.771 17.9118 134.471 17.6602 134.922 17.157Z" fill="black"/>
<path d="M144.507 20.0611H141.317V5.00897H144.507V20.0611Z" fill="black"/>
<path d="M160.096 20.0605H158.284L156.883 16.4059H149.768L148.367 20.0605H146.578L152.011 5.75983H154.663L160.096 20.0605ZM153.325 7.05086L150.305 14.9659H156.342L153.325 7.05086Z" fill="black"/>
<path d="M169.624 5.75983V7.19983H166.584V18.6205H169.624V20.0605H161.775V18.6205H164.815V7.19983H161.775V5.75983H169.624Z" fill="black"/>
</g>
<defs>
<clipPath id="clip0_132_489">
<rect width="170" height="25" fill="white"/>
</clipPath>
</defs>
</svg>
