<svg width="152" height="58" viewBox="0 0 152 58" fill="none" xmlns="http://www.w3.org/2000/svg">
<path d="M55.4585 18.6403C57.3222 46.8973 27.5501 43.0175 27.5501 43.0175C47.9965 43.3068 56.6189 4.55807 23.4443 0.492718C25.1577 0.171337 26.8961 0.00660873 28.6383 0C40.9443 0 51.4066 7.76354 55.4585 18.6403Z" fill="#56676E"/>
<path d="M42.7467 30.2836C42.7467 30.2836 49.7784 0.691952 18.127 2.0137C7.51339 6.19898 0 16.5076 0 28.5889C0.00979071 29.8898 0.108187 31.1883 0.294456 32.4763C6.95557 -1.00307 44.9044 9.83966 42.747 30.2839L42.7467 30.2836Z" fill="#56676E"/>
<path d="M1.89975 39.0069C1.44277 6.65669 31.163 14.9421 31.163 14.9421C10.7635 11.9723 -1.91178 49.1954 31.4347 57.1344C30.5075 57.2255 29.5671 57.2764 28.6149 57.2764C28.5905 57.2764 28.5665 57.2744 28.5427 57.2725C28.519 57.2708 28.495 57.2688 28.471 57.2688C27.208 57.2541 25.9475 57.1562 24.6972 56.9761C24.3289 56.9263 23.9615 56.8702 23.5952 56.8077C22.3905 56.6045 21.1999 56.323 20.0314 55.9664C19.8943 55.9236 19.7627 55.8726 19.6307 55.822L19.6293 55.8212L19.6268 55.8203C19.5255 55.7811 19.4244 55.7419 19.3209 55.7069C18.346 55.3726 17.3901 54.9853 16.4576 54.5467L16.2427 54.4459C15.9929 54.3304 15.7452 54.2105 15.4998 54.0861C14.416 53.5342 13.3687 52.9135 12.3643 52.2278C12.2848 52.1727 12.2077 52.1135 12.1308 52.054L12.1269 52.0516L12.1257 52.0503C12.0613 52.0014 11.9967 51.9517 11.9303 51.9045C10.9809 51.2239 10.0739 50.486 9.21439 49.6949C9.16421 49.6484 9.1133 49.6027 9.06263 49.5571L9.05382 49.5493L9.05309 49.5488L9.04893 49.5449C8.97427 49.4778 8.89962 49.411 8.82619 49.3417C5.78829 46.4457 3.42374 42.9176 1.89975 39.0069Z" fill="#56676E"/>
<path d="M38.6139 55.3611C6.6927 55.1065 14.657 25.814 14.657 25.814C11.4011 46.1253 48.7098 59.1063 57.143 25.965C57.2213 26.8307 57.2759 27.7046 57.2759 28.5904C57.2759 28.6986 57.2686 28.805 57.2608 28.911V28.9147C57.2534 29.0094 57.2468 29.1041 57.2453 29.1998C57.2282 29.9775 57.205 30.7536 57.1278 31.5146C56.0093 42.5155 48.6295 51.6404 38.6136 55.3623L38.6139 55.3611Z" fill="#56676E"/>
<path d="M36.6575 28.5894C36.6575 30.173 36.1868 31.7217 35.3054 33.0385C34.4232 34.356 33.1703 35.3824 31.7049 35.988C30.2388 36.5938 28.6262 36.7522 27.0702 36.4432C25.5146 36.1342 24.0854 35.3713 22.963 34.2508C21.8413 33.1319 21.0774 31.7049 20.7681 30.151C20.4588 28.5971 20.6181 26.9863 21.2259 25.5232C21.8341 24.0595 22.8626 22.8091 24.1814 21.93C25.5015 21.0504 27.0524 20.5814 28.6387 20.582C30.765 20.5822 32.8043 21.426 34.3092 22.9281C35.0536 23.6711 35.6441 24.5536 36.0471 25.525C36.4501 26.4965 36.6576 27.5379 36.6577 28.5896L36.6575 28.5894Z" fill="#4E4F50"/>
<path d="M120.219 40.7442H122.958V15.1772H120.219V40.7442ZM75.7264 24.9293V22.1898H75.5438C74.3995 22.1898 73.4258 22.3847 72.6225 22.7744C70.6748 23.6751 69.4087 25.0752 68.8246 26.9746V22.4821H66.0859V40.7442H68.8249V32.709C68.8249 30.615 69.4089 28.813 70.5774 27.3033C71.8189 25.7209 73.4258 24.9295 75.3976 24.9295H75.7264V24.9293Z" fill="#4E5050"/>
<path fill-rule="evenodd" clip-rule="evenodd" d="M86.5675 38.5507C89.0264 38.5507 90.7912 37.5283 91.8623 35.483H94.8568C94.2238 37.1386 93.2136 38.478 91.8258 39.5007C90.4629 40.5238 88.6977 41.0349 86.5315 41.0349C83.7803 41.0349 81.5407 40.1219 79.8121 38.2959C78.1325 36.5182 77.2925 34.29 77.2925 31.6113C77.2925 28.9091 78.096 26.6809 79.7027 24.9277C81.407 23.1017 83.6224 22.1882 86.3489 22.1882C89.0756 22.1882 91.2908 23.1012 92.9948 24.9277C94.6017 26.6809 95.4051 28.9088 95.4051 31.6115V32.7071H80.1046C80.2994 34.3872 80.9686 35.775 82.1129 36.8706C83.2815 37.9909 84.7662 38.551 86.5677 38.551L86.5675 38.5507ZM86.3484 24.6716C84.6686 24.6716 83.257 25.1954 82.1124 26.2423C81.0413 27.241 80.3844 28.5431 80.1406 30.1503H92.5564C92.3129 28.5434 91.6557 27.2405 90.5846 26.2423C89.4401 25.1952 88.0282 24.6716 86.3484 24.6716ZM101.276 25.4023C102.736 23.2593 104.915 22.188 107.812 22.188C110.441 22.188 112.571 23.101 114.202 24.9274C115.834 26.7289 116.649 28.9573 116.649 31.6113C116.649 34.2653 115.834 36.4932 114.203 38.2952C112.572 40.1211 110.381 41.0341 107.63 41.0341C104.879 41.0341 102.762 39.9508 101.276 37.7836V47.9743H98.5371V22.4802H101.276V25.4023ZM107.447 24.6716C105.475 24.6716 103.917 25.3536 102.773 26.7172C101.677 28.0076 101.13 29.639 101.13 31.6113C101.13 33.5834 101.677 35.2148 102.773 36.5054C103.917 37.8688 105.475 38.5507 107.447 38.5507C109.395 38.5507 110.977 37.8693 112.195 36.5057C113.339 35.215 113.91 33.5836 113.91 31.6113C113.91 29.6385 113.339 28.0073 112.195 26.7169C110.977 25.3536 109.395 24.6714 107.447 24.6714L107.447 24.6716Z" fill="#4E5050"/>
<path d="M135.6 22.4789H138.339V40.7411H135.6V22.4789ZM138.448 19.411V15.8315H135.49V19.411H138.448H138.448ZM145.06 40.7411V24.8899H141.336V22.4789H145.06V15.9412H147.799V22.4789H151.998V24.8899H147.799V40.7411H145.06H145.06ZM126.298 31.1207H129.633V34.4569H126.298V31.1207ZM129.633 37.7926V34.4564H132.969V37.7926H129.633ZM129.633 37.7926V41.1288H126.298V37.7926H129.633Z" fill="#4E5050"/>
</svg>
