<svg width="137" height="58" viewBox="0 0 137 58" fill="none" xmlns="http://www.w3.org/2000/svg">
<g clip-path="url(#clip0_3_119)">
<path d="M9.60959 22.4938C9.60959 20.9993 10.825 20.4245 12.8381 20.4245C15.7248 20.4245 19.3711 21.3059 22.2578 22.877V13.8717C19.1052 12.6072 15.9907 12.109 12.8381 12.109C5.12764 12.109 0 16.171 0 22.9537C0 33.5301 14.4334 31.844 14.4334 36.4042C14.4334 38.1669 12.9141 38.7417 10.787 38.7417C7.63449 38.7417 3.60834 37.4388 0.417808 35.6761V44.7963C3.95019 46.3291 7.52054 46.9806 10.787 46.9806C18.6874 46.9806 24.1189 43.0336 24.1189 36.1742C24.0809 24.7547 9.60959 26.7857 9.60959 22.4938ZM35.2858 4.44492L26.018 6.43759L25.9801 37.1322C25.9801 42.8037 30.1961 46.9806 35.8175 46.9806C38.9321 46.9806 41.2111 46.4058 42.4645 45.716V37.937C41.2491 38.4351 35.2478 40.1979 35.2478 34.5265V20.9227H42.4645V12.7605H35.2478L35.2858 4.44492ZM54.2771 15.5962L53.6693 12.7605H45.4651V46.2908H54.9608V23.5668C57.2017 20.6161 61 21.1526 62.1774 21.5742V12.7605C60.962 12.3006 56.518 11.4576 54.2771 15.5962ZM64.4944 12.7605H74.028V46.2908H64.4944V12.7605ZM64.4944 9.8481L74.028 7.7788V-0.000244141L64.4944 2.03074V9.8481ZM93.8549 12.109C90.1326 12.109 87.7397 13.8717 86.4103 15.098L85.9165 12.7221H77.5604V57.4037L87.056 55.3728L87.094 44.5281C88.4614 45.5244 90.4744 46.9423 93.8169 46.9423C100.616 46.9423 106.807 41.4241 106.807 29.2766C106.769 18.1636 100.502 12.109 93.8549 12.109ZM91.5759 38.5118C89.335 38.5118 88.0056 37.707 87.094 36.7107L87.056 22.4938C88.0435 21.3825 89.4109 20.6161 91.5759 20.6161C95.0323 20.6161 97.4252 24.5248 97.4252 29.5448C97.4252 34.6797 95.0703 38.5118 91.5759 38.5118ZM136.737 29.6598C136.737 19.8497 132.027 12.109 123.025 12.109C113.986 12.109 108.516 19.8497 108.516 29.5831C108.516 41.1176 114.973 46.9423 124.241 46.9423C128.761 46.9423 132.179 45.9076 134.762 44.4514V36.7874C132.179 38.0903 129.217 38.895 125.456 38.895C121.772 38.895 118.506 37.5921 118.088 33.0703H136.661C136.661 32.5721 136.737 30.5795 136.737 29.6598ZM117.974 26.0193C117.974 21.6891 120.595 19.8881 122.988 19.8881C125.304 19.8881 127.773 21.6891 127.773 26.0193H117.974Z" fill="#6772E5"/>
</g>
<defs>
<clipPath id="clip0_3_119">
<rect width="136.737" height="57.6603" fill="white"/>
</clipPath>
</defs>
</svg>
